<?xml version="1.0" standalone="no"?>
<!DOCTYPE svg PUBLIC "-//W3C//DTD SVG 20010904//EN"
 "http://www.w3.org/TR/2001/REC-SVG-20010904/DTD/svg10.dtd">
<svg version="1.0" xmlns="http://www.w3.org/2000/svg"
 width="390.000000pt" height="390.000000pt" viewBox="0 0 390.000000 390.000000"
 preserveAspectRatio="xMidYMid meet">
<metadata>
Created by potrace 1.11, written by Peter Selinger 2001-2013
</metadata>
<g transform="translate(0.000000,390.000000) scale(0.100000,-0.100000)"
fill="#000000" stroke="none">
<path d="M1109 3392 c-751 -433 -828 -480 -835 -507 -4 -16 -9 -459 -11 -982
l-3 -952 27 -30 c16 -16 376 -230 801 -475 l772 -446 88 0 87 0 784 453 c457
265 791 464 800 477 14 21 16 131 19 948 2 847 1 929 -15 982 l-17 57 -819
474 c-451 261 -827 475 -836 476 -9 2 -388 -212 -842 -475z m968 -285 c17 -16
18 -53 23 -471 l5 -454 410 134 c226 73 422 134 436 134 44 0 67 -30 99 -124
36 -107 36 -117 8 -151 -19 -21 -97 -50 -437 -160 -228 -74 -415 -136 -416
-137 -2 -2 114 -163 256 -358 264 -362 275 -381 249 -430 -16 -30 -165 -130
-194 -130 -14 0 -38 12 -55 27 -16 16 -136 177 -267 358 -130 182 -241 334
-244 338 -4 5 -125 -154 -269 -352 -269 -371 -279 -382 -333 -367 -36 9 -162
109 -176 139 -7 15 -10 36 -7 47 3 11 121 178 261 370 140 193 254 353 254
355 0 2 -174 61 -387 130 -452 147 -440 142 -464 169 -25 27 -24 56 7 151 28
88 59 125 102 124 15 0 209 -60 432 -132 l405 -133 5 449 5 449 29 25 c28 24
34 25 137 21 88 -2 112 -6 126 -21z"/>
</g>
</svg>
